<svg width="315" height="79" viewBox="0 0 415 179" fill="none" xmlns="http://www.w3.org/2000/svg">
<path d="M212.417 51.3267H219.118V82.7769H212.417V80.6684C210.858 82.5111 208.622 83.4059 205.76 83.4059C202.898 83.4059 200.309 82.2808 198.214 79.9951C196.118 77.7006 195.088 74.8745 195.088 71.5434C195.088 68.2124 196.118 65.4306 198.214 63.1449C200.309 60.8504 202.81 59.6809 205.76 59.6809C208.71 59.6809 210.849 60.5757 212.417 62.4184V51.3179V51.3267ZM207.107 77.0273C208.674 77.0273 209.969 76.5311 210.946 75.5478C211.924 74.5644 212.417 73.2089 212.417 71.5523C212.417 69.8956 211.924 68.5401 210.946 67.5568C209.969 66.5734 208.666 66.0773 207.107 66.0773C205.549 66.0773 204.245 66.5734 203.268 67.5568C202.282 68.549 201.797 69.8956 201.797 71.5523C201.797 73.2089 202.291 74.5644 203.268 75.5478C204.254 76.54 205.549 77.0273 207.107 77.0273Z" fill="#131313"/>
<path d="M230.01 74.2452C230.767 76.3537 232.555 77.3902 235.372 77.3902C237.204 77.3902 238.63 76.8055 239.661 75.6804L245.023 78.7811C242.831 81.8818 239.573 83.4056 235.284 83.4056C231.533 83.4056 228.539 82.2805 226.268 80.0391C224.031 77.7889 222.922 74.9628 222.922 71.5431C222.922 68.1235 224.04 65.3417 226.224 63.0915C228.46 60.7969 231.313 59.6807 234.8 59.6807C238.058 59.6807 240.744 60.8058 242.883 63.0915C245.076 65.3417 246.141 68.1678 246.141 71.5431C246.141 72.4822 246.053 73.3858 245.877 74.2363H230.028L230.01 74.2452ZM239.484 69.2132C238.815 66.83 237.248 65.6606 234.747 65.6606C232.246 65.6606 230.547 66.83 229.878 69.2132H239.476H239.484Z" fill="#131313"/>
<path d="M251.943 79.9948C249.707 77.7003 248.597 74.9185 248.597 71.5431C248.597 68.1678 249.716 65.386 251.943 63.0915C254.224 60.7969 257.033 59.6807 260.432 59.6807C264.72 59.6807 268.559 61.9752 270.523 65.4303L264.676 68.8411C263.875 67.1755 262.439 66.3251 260.344 66.3251C257.438 66.3251 255.298 68.4778 255.298 71.5343C255.298 74.5907 257.438 76.7435 260.344 76.7435C262.439 76.7435 263.919 75.893 264.676 74.2275L270.523 77.594C268.559 81.1465 264.764 83.3879 260.432 83.3879C257.042 83.3879 254.224 82.2628 251.943 79.9771V79.9948Z" fill="#131313"/>
<path d="M283.467 83.4056C280.165 83.4056 277.347 82.2805 275.067 79.9948C272.786 77.7003 271.633 74.8742 271.633 71.5431C271.633 68.2121 272.795 65.4303 275.067 63.1446C277.347 60.8501 280.156 59.6807 283.467 59.6807C286.778 59.6807 289.587 60.8501 291.867 63.1446C294.148 65.4391 295.31 68.2209 295.31 71.5431C295.31 74.8653 294.148 77.7003 291.867 79.9948C289.587 82.2893 286.778 83.4056 283.467 83.4056ZM283.467 76.8498C284.938 76.8498 286.144 76.3537 287.13 75.3703C288.116 74.3869 288.601 73.1201 288.601 71.552C288.601 69.9839 288.108 68.717 287.13 67.7337C286.144 66.7414 284.938 66.2542 283.467 66.2542C281.997 66.2542 280.79 66.7503 279.804 67.7337C278.818 68.7259 278.334 69.9839 278.334 71.552C278.334 73.1201 278.827 74.3869 279.804 75.3703C280.79 76.3625 281.997 76.8498 283.467 76.8498Z" fill="#131313"/>
<path d="M315.307 51.3267H322.008V82.7769H315.307V80.6684C313.749 82.5111 311.512 83.4059 308.651 83.4059C305.789 83.4059 303.2 82.2808 301.104 79.9951C299.009 77.7006 297.979 74.8745 297.979 71.5434C297.979 68.2124 299.009 65.4306 301.104 63.1449C303.2 60.8504 305.701 59.6809 308.651 59.6809C311.6 59.6809 313.74 60.5757 315.307 62.4184V51.3179V51.3267ZM309.998 77.0273C311.565 77.0273 312.86 76.5311 313.837 75.5478C314.823 74.5555 315.307 73.2089 315.307 71.5523C315.307 69.8956 314.814 68.5401 313.837 67.5568C312.851 66.5645 311.556 66.0773 309.998 66.0773C308.439 66.0773 307.136 66.5734 306.159 67.5568C305.172 68.549 304.688 69.8956 304.688 71.5523C304.688 73.2089 305.181 74.5644 306.159 75.5478C307.145 76.54 308.439 77.0273 309.998 77.0273Z" fill="#131313"/>
<path d="M332.909 74.2452C333.666 76.3537 335.453 77.3902 338.271 77.3902C340.103 77.3902 341.529 76.8055 342.559 75.6804L347.922 78.7811C345.729 81.8818 342.471 83.4056 338.183 83.4056C334.432 83.4056 331.438 82.2805 329.166 80.0391C326.93 77.7889 325.82 74.9628 325.82 71.5431C325.82 68.1235 326.939 65.3417 329.122 63.0915C331.359 60.7969 334.212 59.6807 337.699 59.6807C340.957 59.6807 343.642 60.8058 345.782 63.0915C347.975 65.3417 349.04 68.1678 349.04 71.5431C349.04 72.4822 348.952 73.3858 348.776 74.2363H332.926L332.909 74.2452ZM342.374 69.2132C341.705 66.83 340.138 65.6606 337.637 65.6606C335.136 65.6606 333.437 66.83 332.768 69.2132H342.366H342.374Z" fill="#131313"/>
<path d="M368.809 51.3267H375.51V82.7769H368.809V80.6684C367.251 82.5111 365.014 83.4059 362.153 83.4059C359.291 83.4059 356.702 82.2808 354.606 79.9951C352.511 77.7006 351.48 74.8745 351.48 71.5434C351.48 68.2124 352.511 65.4306 354.606 63.1449C356.702 60.8504 359.203 59.6809 362.153 59.6809C365.102 59.6809 367.242 60.5757 368.809 62.4184V51.3179V51.3267ZM363.5 77.0273C365.067 77.0273 366.362 76.5311 367.339 75.5478C368.325 74.5555 368.809 73.2089 368.809 71.5523C368.809 69.8956 368.316 68.5401 367.339 67.5568C366.353 66.5645 365.058 66.0773 363.5 66.0773C361.941 66.0773 360.638 66.5734 359.661 67.5568C358.674 68.549 358.19 69.8956 358.19 71.5523C358.19 73.2089 358.683 74.5644 359.661 75.5478C360.647 76.54 361.941 77.0273 363.5 77.0273Z" fill="#131313"/>
<path d="M208.489 96.5174C205.725 96.2959 204.333 97.3236 204.333 99.6624H208.489V106.13H204.333V122.129H197.632V106.13H194.639V99.6624H197.632C197.632 93.1952 201.296 89.6426 208.481 90.0502V96.5174H208.489Z" fill="#131313"/>
<path d="M217.647 103.667C218.492 100.787 221.31 99.2192 224.348 99.2192V106.856C222.693 106.59 221.178 106.856 219.752 107.706C218.369 108.513 217.656 109.957 217.656 111.976V122.129H210.955V99.6622H217.656V103.658L217.647 103.667Z" fill="#131313"/>
<path d="M237.512 122.759C234.21 122.759 231.392 121.633 229.112 119.348C226.831 117.053 225.678 114.227 225.678 110.896C225.678 107.565 226.84 104.783 229.112 102.498C231.392 100.203 234.201 99.0337 237.512 99.0337C240.823 99.0337 243.632 100.203 245.912 102.498C248.193 104.792 249.355 107.574 249.355 110.896C249.355 114.218 248.193 117.053 245.912 119.348C243.632 121.642 240.823 122.759 237.512 122.759ZM237.512 116.203C238.983 116.203 240.189 115.707 241.175 114.723C242.161 113.731 242.646 112.473 242.646 110.905C242.646 109.337 242.153 108.07 241.175 107.087C240.189 106.094 238.983 105.607 237.512 105.607C236.042 105.607 234.835 106.103 233.849 107.087C232.863 108.079 232.379 109.337 232.379 110.905C232.379 112.473 232.872 113.74 233.849 114.723C234.835 115.716 236.042 116.203 237.512 116.203Z" fill="#131313"/>
<path d="M272.169 101.505C273.78 103.171 274.582 105.412 274.582 108.336V122.13H267.881V109.328C267.881 106.679 266.269 105.235 263.998 105.235C261.453 105.235 259.841 106.803 259.841 109.86V122.13H253.141V99.6627H259.841V101.771C261.18 99.9285 263.328 99.0337 266.225 99.0337C268.594 99.0337 270.602 99.8399 272.169 101.505Z" fill="#131313"/>
<path d="M292.263 106.139H287.666V114.094C287.666 115.893 289.005 116.203 292.263 116.025V122.138C288.019 122.59 285.069 122.183 283.422 120.925C281.767 119.622 280.966 117.372 280.966 114.094V106.139H277.391V99.6714H280.966V95.4012L287.666 93.3813V99.6714H292.263V106.139Z" fill="#131313"/>
<path d="M301.596 113.598C302.353 115.707 304.141 116.743 306.959 116.743C308.79 116.743 310.217 116.159 311.247 115.033L316.609 118.134C314.417 121.235 311.159 122.759 306.871 122.759C303.119 122.759 300.126 121.633 297.854 119.392C295.617 117.142 294.508 114.316 294.508 110.896C294.508 107.477 295.626 104.695 297.81 102.444C300.046 100.15 302.899 99.0337 306.386 99.0337C309.644 99.0337 312.33 100.159 314.47 102.444C316.662 104.695 317.728 107.521 317.728 110.896C317.728 111.835 317.639 112.739 317.463 113.589H301.614L301.596 113.598ZM311.071 108.566C310.401 106.183 308.834 105.014 306.333 105.014C303.833 105.014 302.133 106.183 301.464 108.566H311.062H311.071Z" fill="#131313"/>
<path d="M340.544 101.505C342.155 103.171 342.957 105.412 342.957 108.336V122.13H336.256V109.328C336.256 106.679 334.644 105.235 332.373 105.235C329.828 105.235 328.216 106.803 328.216 109.86V122.13H321.516V99.6627H328.216V101.771C329.555 99.9285 331.703 99.0337 334.6 99.0337C336.969 99.0337 338.977 99.8399 340.544 101.505Z" fill="#131313"/>
<path d="M363.763 90.6793H370.463V122.129H363.763V120.021C362.204 121.864 359.967 122.758 357.106 122.758C354.244 122.758 351.655 121.633 349.56 119.348C347.464 117.053 346.434 114.227 346.434 110.896C346.434 107.565 347.464 104.783 349.56 102.497C351.655 100.203 354.156 99.0335 357.106 99.0335C360.055 99.0335 362.195 99.9283 363.763 101.771V90.6704V90.6793ZM358.444 116.38C360.011 116.38 361.306 115.884 362.283 114.9C363.269 113.908 363.754 112.561 363.754 110.905C363.754 109.248 363.261 107.893 362.283 106.909C361.297 105.917 360.003 105.43 358.444 105.43C356.886 105.43 355.582 105.926 354.605 106.909C353.619 107.902 353.134 109.248 353.134 110.905C353.134 112.561 353.628 113.917 354.605 114.9C355.591 115.893 356.886 116.38 358.444 116.38Z" fill="#131313"/>
<path d="M93.9933 86.9851C83.4709 86.9585 75.0001 95.8177 75.5637 106.52C76.0744 116.212 84.2193 123.999 93.87 124.034C101.46 124.07 107.985 119.481 110.829 112.907C111.815 110.639 112.361 108.141 112.361 105.51V96.6239H120.198V86.9851H112.361V68.4871C112.361 66.5912 113.62 64.8548 115.461 64.4738C117.979 63.96 120.198 65.8913 120.198 68.3276V71.2423L129.778 74.3696V68.3276C129.778 60.3189 122.857 53.9137 114.721 54.8439C107.853 55.6235 102.799 61.7363 102.799 68.6997V89.2619V105.306C102.799 107.131 102.341 108.956 101.311 110.471C99.5935 112.987 96.8902 114.413 93.958 114.413C91.5982 114.413 89.3793 113.492 87.7063 111.809C86.0332 110.125 85.1175 107.893 85.1175 105.518C85.1175 102.099 87.0194 98.9804 90.3214 97.3769C91.4485 96.8276 92.6284 96.615 93.8788 96.6327" fill="#131313"/>
<path d="M93.9933 86.9851C83.4709 86.9585 75.0001 95.8177 75.5637 106.52C76.0744 116.212 84.2193 123.999 93.87 124.034C101.46 124.07 107.985 119.481 110.829 112.907C111.815 110.639 112.361 108.141 112.361 105.51V96.6239H120.198V86.9851H112.361V68.4871C112.361 66.5912 113.62 64.8548 115.461 64.4738C117.979 63.96 120.198 65.8913 120.198 68.3276V71.2423L129.778 74.3696V68.3276C129.778 60.3189 122.857 53.9137 114.721 54.8439C107.853 55.6235 102.799 61.7363 102.799 68.6997V89.2619V105.306C102.799 107.131 102.341 108.956 101.311 110.471C99.5935 112.987 96.8902 114.413 93.958 114.413C91.5982 114.413 89.3793 113.492 87.7063 111.809C86.0332 110.125 85.1175 107.893 85.1175 105.518C85.1175 102.099 87.0194 98.9804 90.3214 97.3769C91.4485 96.8276 92.6284 96.615 93.8788 96.6327" fill="#131313"/>
<path d="M378.792 89.7047H375.745V124.654H378.792V89.7047Z" fill="url(#paint0_linear_44_428)"/>
<path d="M69.293 131.617H63.5695C61.0952 131.617 59.0964 129.597 59.0964 127.117V96.8095C59.0964 92.7166 55.8032 89.4032 51.7351 89.4032C55.8032 89.4032 59.0964 86.0899 59.0964 81.9969V54.9764C59.1316 50.7151 60.6285 47.2157 67.6024 47.1892L74.4882 36H62.4336C54.456 36 47.9841 42.5026 47.9841 50.5291V71.3039C47.9841 77.8863 42.6833 83.2195 36.1409 83.2195C36.0969 83.2195 36.044 83.2195 36 83.2195V95.5692C36.044 95.5692 36.0969 95.5692 36.1409 95.5692C42.6833 95.5692 47.9841 100.902 47.9841 107.485V128.26C47.9841 136.286 54.4472 142.789 62.4248 142.789H75.5272L69.2842 131.617H69.293Z" fill="url(#paint1_linear_44_428)"/>
<path d="M142.245 131.617H147.969C150.443 131.617 152.442 129.597 152.442 127.117V96.8096C152.442 92.7166 155.735 89.4033 159.803 89.4033C155.735 89.4033 152.442 86.09 152.442 81.997V54.9765C152.407 50.7152 150.91 47.2158 143.936 47.1892L137.05 36.0001H149.105C157.082 36.0001 163.545 42.5027 163.545 50.5292V71.304C163.545 77.8863 168.846 83.2196 175.388 83.2196C175.433 83.2196 175.485 83.2196 175.529 83.2196V95.5693C175.485 95.5693 175.433 95.5693 175.388 95.5693C168.846 95.5693 163.545 100.903 163.545 107.485V128.26C163.545 136.286 157.082 142.789 149.105 142.789H136.002L142.245 131.617Z" fill="url(#paint2_linear_44_428)"/>
<defs>
<linearGradient id="paint0_linear_44_428" x1="36" y1="82.9082" x2="389.656" y2="129.794" gradientUnits="userSpaceOnUse">
<stop stop-color="#E90356"/>
<stop offset="0.108473" stop-color="#F551B4"/>
<stop offset="0.292957" stop-color="#F551B4"/>
<stop offset="0.401102" stop-color="#D940F3"/>
<stop offset="0.765" stop-color="#C71AE3"/>
</linearGradient>
<linearGradient id="paint1_linear_44_428" x1="36" y1="82.9082" x2="389.656" y2="129.794" gradientUnits="userSpaceOnUse">
<stop stop-color="#E90356"/>
<stop offset="0.108473" stop-color="#F551B4"/>
<stop offset="0.292957" stop-color="#F551B4"/>
<stop offset="0.401102" stop-color="#D940F3"/>
<stop offset="0.765" stop-color="#C71AE3"/>
</linearGradient>
<linearGradient id="paint2_linear_44_428" x1="36" y1="82.9082" x2="389.656" y2="129.794" gradientUnits="userSpaceOnUse">
<stop stop-color="#E90356"/>
<stop offset="0.108473" stop-color="#F551B4"/>
<stop offset="0.292957" stop-color="#F551B4"/>
<stop offset="0.401102" stop-color="#D940F3"/>
<stop offset="0.765" stop-color="#C71AE3"/>
</linearGradient>
</defs>
</svg>
